<?xml version="1.0" encoding="UTF-8"?>
<svg width="27px" height="18px" viewBox="0 0 27 18" version="1.1" xmlns="http://www.w3.org/2000/svg" xmlns:xlink="http://www.w3.org/1999/xlink">
    <!-- Generator: Sketch 48.2 (47327) - http://www.bohemiancoding.com/sketch -->
    <title>Shape</title>
    <desc>Created with Sketch.</desc>
    <defs/>
    <g id="Home" stroke="none" stroke-width="1" fill="none" fill-rule="evenodd" transform="translate(-47.000000, -804.000000)" opacity="0.85620471">
        <g id="right-arrow-copy-3" transform="translate(60.500000, 813.000000) scale(-1, 1) translate(-60.500000, -813.000000) translate(47.000000, 804.000000)" fill="#A19EBA" fill-rule="nonzero">
            <path d="M18.1814862,0.270707253 C17.8136551,-0.0902357511 17.2014608,-0.0902357511 16.8207685,0.270707253 C16.4529374,0.619456237 16.4529374,1.19989161 16.8207685,1.54782766 L23.7203874,8.08951314 L0.952588123,8.08951314 C0.421848206,8.09032608 0,8.49028995 0,8.99349652 C0,9.4967031 0.421848206,9.90967392 0.952588123,9.90967392 L23.7203874,9.90967392 L16.8207685,16.4391654 C16.4529374,16.8001084 16.4529374,17.3813567 16.8207685,17.7292927 C17.2014608,18.0902358 17.8145125,18.0902358 18.1814862,17.7292927 L26.7144808,9.63896667 C27.0951731,9.29021769 27.0951731,8.70978231 26.7144808,8.36184627 L18.1814862,0.270707253 Z" id="Shape"/>
        </g>
    </g>
</svg>